<?xml version="1.0" standalone="no"?>
<!DOCTYPE svg PUBLIC "-//W3C//DTD SVG 20010904//EN"
 "http://www.w3.org/TR/2001/REC-SVG-20010904/DTD/svg10.dtd">
<svg version="1.0" xmlns="http://www.w3.org/2000/svg"
 width="16.000000pt" height="16.000000pt" viewBox="0 0 16.000000 16.000000"
 preserveAspectRatio="xMidYMid meet">
<metadata>
Created by potrace 1.11, written by Peter Selinger 2001-2013
</metadata>
<g transform="translate(0.000000,16.000000) scale(0.003125,-0.003125)"
fill="#000000" stroke="none">
<path d="M2438 4795 c-2 -2 -34 -6 -72 -10 -38 -3 -72 -7 -75 -9 -3 -2 -28 -7
-56 -10 -27 -4 -58 -9 -67 -12 -9 -3 -26 -7 -38 -9 -113 -22 -394 -121 -490
-172 -274 -148 -461 -367 -568 -663 -50 -139 -74 -269 -77 -420 -3 -135 0
-175 31 -325 25 -126 128 -362 220 -503 51 -79 159 -221 225 -297 103 -119
130 -148 269 -292 277 -288 427 -469 542 -656 59 -95 132 -241 142 -283 4 -16
21 -46 38 -67 42 -53 48 -115 26 -247 -9 -58 -19 -125 -21 -150 -3 -25 -10
-58 -17 -75 -6 -16 -14 -66 -17 -111 -6 -92 10 -138 55 -155 15 -6 77 -11 139
-12 l112 -2 32 31 c30 30 32 37 34 114 1 46 -2 99 -6 119 -5 20 -11 55 -15 78
-3 23 -9 55 -13 70 -4 15 -4 46 0 69 8 43 20 175 24 259 2 52 60 206 117 313
17 31 38 71 46 87 44 85 171 263 255 355 65 71 207 249 316 395 61 83 114 155
118 160 5 6 50 75 102 155 52 80 102 156 111 170 41 61 143 252 174 326 103
245 129 508 71 735 -67 263 -210 468 -470 674 -193 152 -460 283 -675 331 -19
4 -39 9 -45 10 -5 1 -28 5 -50 9 -22 3 -49 9 -60 12 -21 6 -361 14 -367 8z"/>
</g>
</svg>
